<?xml version='1.0' encoding='utf-8'?>
<svg xmlns="http://www.w3.org/2000/svg" enable-background="new 0 0 3855.2734 5000" version="1.1" viewBox="0 0 3855.3 5e3"> <path d="m3761.7 1489.6c59.094-39.387 79.952-99.102 93.581-165.52v-38.287c-11.877-35.927-14.837-88.405-68.333-142.85-55.856-56.751-131.18-69.34-207.24-69.916 15.647-13.73 32.536-28.707 45.812-44.727 82.248-99.252 67.851-239.5 28.5-353.27-18.448-53.328-43.869-102.2-49.079-159.4-4.9407-54.304 5.165-63.36 40.672-105.57l-0.5161-4.1164c-7.4731-4.3645-11.517-3.2987-19.585-1.25-70.95 18.034-117.54 67.118-153.99 127.77-7.0779-9.5692-10.161-24.776-14.149-36.122-15.108-42.998-34.795-89.104-27.442-135.9 1.3972-8.9062 3.3508-18.347 7.1348-26.564 4.5781-9.9414 17.929-26.794 15.478-36.864-17.013-3.5673-29.043 3.2193-48.138 12.785-39.66 19.857-74.391 44.049-106.33 74.85-25.724-32.664-83.921-84.801-88.348-134.19-1.9177-21.33 3.4612-59.327-24.611-61.275-8.2715 10.762-8.8779 34.197-11.4 47.815-9.2292 49.802-50.342 85.211-74.982 121.55-13.467 19.862-20.926 39.669-27.601 62.441-6.6108-7.0756-11.788-16.901-17.085-25.11-45.295-70.194-29.014-105.31-34.754-121.35-0.6062-1.6988-4.7251-5.3287-6.0991-6.875-6.6716-1.4638-6.728-2.1153-12.549 1.2451-30.888 60.712-65.141 117.65-75.972 186.04-20.62-10.499-35.766-17.617-58.39-8.5295-24.871 9.9944-37.642 36.476-48.368 59.267-20.198-8.7542-34.995-11.409-49.441-11.847-5.3613-5.3814-3.6445-11.524-4.3562-18.938-4.5156-47.118-48.528-90.045-133.69-80.916-10.907 1.1675-20.074 5.5359-30.014 9.9152-24.446-28.715-37.047-53.068-36.956-91.34 0.0906-39.065 14.382-73.35 39.916-102.64 6.3025-7.2254 14.389-13.047 21.245-19.842l-0.4668-5.7682c-5.655-0.1662-7.8613-3.4807-13.042-3.602-68.239-1.5971-131.81 13.177-182.17 62.076-52.035 50.525-75.969 118.75-77.354 190.28-28.862-20.181-56.628-38.965-88.867-53.452-48.477-21.788-259.59-92.873-496.24-51.897-225.41 46.31-234.67 54.854-323.04 25.615-5.892 14.363-1.5513 42.653-0.6475 58.344-95.714 12.844-207.32-14.026-252.09-95.381-16.095-29.252-14.74-58.27-5.9147-89.451 4.2355-14.971 14.171-25.397 24.062-36.946-140.49 34.227-202.76 198.31-136.1 297.09l-49.93-8.0701c-105.6-27.515-182.17-110.44-168.36-161.93 20.369 13.842 43.796 7.9077 56.289-9.3391 8.9406-12.34 8.5381-29.351 5.8884-44.414-0.7682-4.6766-1.3668-9.3391-3.0647-13.805-15.288-40.18-98.829-74.386-170.3-42.355-41.429 18.564-62.34 54.257-77.324 94.794l-13.482-19.672c-39.051-46.874-101.48-21.446-107.25-24.29-1.0579-0.5226-13.742-30.35-15.76-34.046-25.08-45.938-71.344-63.89-100.24-57.412-26.403 5.9196-45.604 32.796-58.124 54.764-8.3743-15.373-17.829-27.74-31.18-39.185-22.471-19.263-41.34-18.922-69.827-16.634-6.0461-10.198-13.225-20.945-16.745-32.329-3.3286-10.766-4.8729-82.402-53.56-114.54-20.923-13.811-55.447-22.217-79.852-16.916-75.289 16.35-106.31 72.359-119.91 144.53v18.318c9.2644 37.663 15.458 148.19 195.59 334.31 124.86 129.01 270.69 226.28 450.09 263l69.975 11.188c-22.902 20.994-32.122 37.888-38.771 68.147-6.0956 27.735 15.048 72.375 30.56 95.234 26.833 39.538 77.55 70.014 124.15 78.721 56.534 10.563 104.77 0.2334 157.72-18.475l0.6288 2.0899-37.898 65.548c-27.586 51.05-52.671 110.69-114.99 126.99-10.617 2.7791-23.361 4.4135-34.298 2.734-13.064-2.0109-39.257-17.504-47.833-4.5266 15.502 67.974 111.28 141.49 203.37 119.11 76.13-18.502 85.776-55.216 96.246-52.157 39.745 11.606 57.698-6.3005 92.798-29.223-1.8712 27.615-2.4735 58.932-14.16 84.4-9.1613 19.959-31.843 34.678-8.7045 60.942 14.676 16.662 26.985 27.492 46.907 23.634 4.6533 10.217 5.3497 22.437 8.3278 33.305 49.176 179.53 185.19 311.7 347.19 372.32 216.71 81.092 498.18-21.873 573.46-237.18 42.633-121.93-28.392-281.65-158.25-325.99-97.086-33.156-219.89-3.7113-250.04 92.643l-6.4039 25.691c-16.884 70.581 35.641 167.94 114.29 185.47 30.564 6.8163 58.703 3.3555 89.319 2.4252-33.662 36.393-76.126 53.836-126.05 56.107l-37.581-1.1147c-57.705-4.7474-121.06-42.081-156.83-85.402-13.482-16.325-25.372-39.677-33.798-59.124 29.554 0.9038 58.631-1.548 81.668-22.576 15.154-13.832 28.866-38.672 29.656-59.523 0.5496-14.51-6.822-33.885-11.449-47.691 53.69-24.96 82.424-55.665 65.585-113.53 25.636-11.464 38.008-28.692 51.613-55.825 14.721 9.7722 30.078 20.81 46.282 27.86 29.254 12.732 78.758 18.159 110.26 11.636 57.347-11.879 100.12-53.524 116.45-107.27 2.865-9.4446 3.7573-29.55 8.2566-36.649 2.8461-4.485 14.201-11.192 18.806-14.822 37.525 66.26 92.789 52.312 123.3 58.461-11.295 59.293-10.869 113.92 23.896 166.24 26.335 39.639 72.614 74.775 119.89 84.012 28.964 5.6599 69.112 1.7999 93.954-15.636 25.609-17.978 43.985-50.15 48.447-80.992 2.0215-14.001 1.3479-29.81 0.2556-43.947-7.127 14.484-14.611 33.828-31.546 38.848-20.751 6.1519-52.682-4.5856-56.832-25.619-4.2844-21.695 4.7664-48.229 17.695-65.439 16.201-21.567 48.353-34.111 74.346-37.568 43.73-5.8143 91.133 2.9036 132.55 16.724-50.898 44.576-91.186 107.44-95.587 176.42-3.6143 56.661 19.592 104.06 56.749 145.41 74.41 82.826 155.08 105.08 176.05 120.39-50.232 4.1388-102.62 12.352-137.2 53.196-13.527 15.982-21.66 40.678-20.628 61.617 0.5684 11.482 6.5698 25.284 10.23 36.246-33.391 13.742-55.043 38.992-68.8 72.361-16.246 39.417-11.359 80.932-3.2639 121.38-31.14-44.778-34.47-42.633-53.812-117.52 25.936-5.9613 45.766-12.39 60.529-36.329 22.522-36.552-32.272-70.446-34.611-76.108-1.0537-2.5458 21.814-47.28 24.577-52.296 26.186-47.544 49.464-35.576 48.613-62.057-9.0056-14.186-19.717-16.634-35.292-20.042-118.6-25.965-305.25 95.313-247.75 300.59-27.661-3.1216-67.128 5.4531-85.938-18.844-10.226-13.21-14.905-34.401-12.673-50.861 1.7546-12.94 8.4639-25.574 6.0957-38.438-5.0525-6.6014-9.1677-9.3278-16.795-12.551-54.307 4.6726-136.08 99.144-124.16 205.17 5.2823 47.005 28.538 75.298 50.296 114.72-29.713 1.3291-45.213 10.175-66.952 29.825-2.3719 10.138-3.1322 22.622-12.296 28.745-15.131 10.115-39.886 15.474-57.528 10.428-14.547-4.1611-26.415-18.016-33.225-31.2-4.9333-11.363-5.0007-12.412-9.9092-18.686l-7.157 0.6328c-12.729 18.513-14.698 45.066-10.982 66.651 17.031 98.967 131.59 174.24 235.79 155.33 83.263-15.116 129.8-90.354 151.35-95.155 1.7622-2.8921 4.676-3.6565 7.6165-5.2344-2.5562 2.2668-4.2241 4.4246-7.6165 5.2344-3.741 6.2983-39.007 36.165-63.484 63.191-74.188 81.907-132.56 197.63-139.69 309.38-1.7092 26.813 0.3655 52.161 2.6731 78.71 28.501 327.61 257.87 531.88 422.85 539.42l1.781 11.953c-34.16 52.502-10.659 234.19 161.42 276.49-6.6379 79.527-8.9011 154.46-79.387 185.27-18.094 7.9458-42.653 8.925-59.685-1.8264-7.4546-4.7112-13.286-11.136-21.626-14.333-2.967 2.3992-4.4202 2.6174-5.3574 6.5149-3.031 12.582 7.7292 36.382 14.152 47.341 23.606 40.219 71.571 66.919 115.87 77.84 69.764 17.248 126.17-8.9626 184.72-44.926-8.7461 99.623-39.692 191.76 18.045 427.69 67.143 274.41 216.95 565.34 483.7 650.74-9.8828 8.6245-20.854 16.608-24.656 29.713-26.17 90.161 88.719 197.97 191.9 139.03 101.33-57.773 79.4-218.31-17.586-291.02-35.708-26.697-39.582-23.277-42.589-27.49-4.1489-5.8374-6.6487-18.679-10.097-25.796-6.8181-14.084-16.362-27.001-25.27-39.842 55.973-33.966 66.544-99.621 18.459-141.82-14.57-12.841-44.501-23.386-63.71-21.503-4.1375 0.4141-4.1187-0.2256-7.6389-2.1841 12.179-14.988 22.544-28.658 26.874-47.789 10.297-45.491-5.6099-78.104-28.866-115.57 12.865-4.1948 86.207-10.526 127.85-74.149 45.579-69.723 23.935-158.78-21.874-186.03-36.96-22.046-77.179-4.5452-86.789 26.587-2.1873 7.0801-3.3093 16.608-7.0366 22.934-2.9592 5.009-6.6074 4.7449-11.818 6.0254-2.4885-0.6775-8.0869-1.3933-10.037-2.7114-8.9529-5.9873-12.65-31.445-18.376-41.914-4.4465-8.1338-11.133-15.402-17.168-22.369 10.085-11.696 81.262-51.427 87.964-123.97 8.7439-94.709-72.628-131.17-107.64-107.59-3.4746 10.974-4.7717 17.245-5.9146 24.44-67.623-43.895-79.854-150.61-77.392-231.35 2.8767-94.331 32.205-193.09 93.265-266.34 15.01-18.005 33.591-34.111 50.522-50.327 60.48 47.853 141.52 79.16 215.09 42.008-25.236-2.9563-48.055-8.8577-66.131-28.104-14.386-15.323-22.39-39.508-21.351-60.412 3.8904-78.444 38.736-88.919 53.646-139.06 12.417-41.748-4.2656-89.394-24.25-125.63 8.5413-30.757 9.1157-57.932-8.3506-86.738-13.599-22.433-34.084-32.356-58.691-38.332 7.9868-24.937 42.527-96.851 97.662-126.82 13.162-7.1514 29.72-11.263 43.974-15.982-7.2959-35.999-11.556-50.473 3.2605-69.148 10.271-12.943 26.983-22.309 43.507-23.457 38.62-2.689 65.137 18.78 92.199 42.678-11.623-42.946-20.632-82.615-49.531-117.85-21.554-26.286-56.96-49.291-91.612-52.055-47.039-3.7507-73.634 8.1267-108.44 37.782-0.2451-6.3982 24.678-48.605 40.424-66.674 30.338-34.815 72.06-66.542 85.279-112.38-160.42-76.516-259.32 149.05-293.04 322.77-12.089 62.28-14.051 121.41-12.789 184.67 1.5549 77.923 7.0439 166.82 52.716 232.8 8.644 12.487 24.419 24.019 39.735 26.105 24.977 3.4043 43.835-11.376 62.061-25.984l-38.109 11.238c-63.666-12.664-74.242-66.46-83.005-137.73-17.849-145.17-7.8008-289.9 50.386-425.34 32.938-76.681 72.284-142.83 154.79-152.78-6.8069 7.1025-11.901 15.109-18.332 22.384-7.0061 7.9309-17.296 14.48-19.314 25.291 6.6938 6.1045 13.663-1.156 22.296 1.2578-15.764 45.794-133.98 52.823-171.31 353.56-2.564 20.663-1.9841 41.91-1.9917 62.705-0.019 59.052 5.0828 127.72 43.485 175.77 8.5728 10.721 20.014 14.886 33.27 16.325 5.3838-2.2747 8.4712-4.9897 12.548-8.9854-63.349-15.193-65.784-117.83-64.094-177.82 5.5952-198.76 144.37-323.55 210.18-320.31 37.37 1.8416 65.63 21.586 89.872 48.466-22.887-4.4436-53.285-5.5581-76.243-1.6118-51.813 8.9138-104.8 48.403-134.29 90.584 16.803-10.77 36.742-22.96 57.404-23.894 25.89-1.1663 40.708 31.573 40.823 43.744-17.034 1.0461-13.214 0.8999-18.275 0.8547-51.644 4.1208-162.37 130.99-159.37 211.78 0.7603 20.561 1.3928 35.406 17.604 50.251 3.366 0.772 7.3792 2.4026 10.749 1.6082 20.116-4.7375 26.641-28.282 37.374-43.616 5.2595-7.5127 10.007-7.75 18.388-8.8384 5.9336 2.606 9.2502 6.3757 13.147 11.403 8.4973 10.962 10.03 23.028 7.6956 36.581-3.1025 18.012-16.784 26.696-30.794 36.37 19.472 15.448 34.72 28.812 42.98 52.929 28.948 84.523-81.099 114.84-39.2 242.09-45.626-40.428-68.11-61.834-68.269-130.84l-2.7407-1.2542c-16.674 18.098-8.5845 54.08-1.9238 77.249l-35.274-35.049c-66.424-80.292-81.416-185.28-86.533-285.52-9.4592-185.28 24.488-444.5 167.62-562.27 38.696-31.836 93.716-50.236 143.82-47.71 35.528 1.7881 30.916 6.3713 44.114 17.975 70.301 61.79 203.76 8.0217 229.03-124.94 1.6946-8.9172 1.2051-17.906 2.4475-26.779 7.563-37.779-14.248-95.495-37.31-126.52-33.903-45.536-78.235-64.806-132.92-73.268 16.98-10.864 32.073-18.55 42.946-36.382 15.557-25.506 20.293-54.428 12.537-83.293-7.8689-29.287-31.373-47.676-56.425-62.031 14.391-10.864 43.873-29.274 46.854-77.512 0.813-13.139-1.988-37.986-11.438-47.634-13.708-13.99-30.665 11.572-42.834 16.103-5.1106 1.9009 0.3967 1.0536-89.13 0.1807 6.6853-10.928 12.626-18.163 11.268-29.829-1.2158-11.437-9.1072-22.855-14.559-32.842 13.776-18.893 22.864-37.406 31.55-58.988 44.656 21.784 119.25 18.513 172.65-17.094zm-110.81-10.311c-4.3674-5.1929-3.3132-8.394-3.5239-15.048l4.0322 1.3859 0.4592 13.674-0.9675-0.0115zm64.678-38.347-2.0029-6.8201 1.2913 0.3203 2.3342 7.2114-1.6226-0.7116zm34.807-34.898-1.0168-12.08 4.7405 1.3817 0.5007 11.17-4.2244-0.4709zm-157.28-292.72c207.58-6.3989 269.33 190.58 194.6 314.48 4.5554-35.862 5.5344-70.011-4.6685-105.1-3.8101-13.306-4.7529-18.596-11.822-27.445l-5.4968 0.124c8.4333 40.31 22.816 94.662 3.6145 133.85 3.1714-26.257 0.8726-58.087-5.0488-82.321-3.3809-13.508-4.8604-29.671-16.494-38.28-8.5129 13.902 10.433 13.498 3.2832 85.356-10.199-36.348 2.8069-52.836-37.943-94.952 8.0947 22.358 21.042 44.328 21.166 68.58 0.0337 6.8201-0.5647 18.392 3.6594 23.845l-0.9075 1.8641c-2.2173 7.1097 3.0801 28.169 3.4641 36.999 0.2749 6.3418-1.7432 11.279-4.0776 17.089-3.0264-9.0067 4.0618-14.889-2.8801-31.422-10.915-25.973-10.662-55.056-23.53-81.764 7.0801 52.632 11.183 70.033 7.4016 97.641-5.7866-14.901-8.708-48.206-18.395-58.453-3.5054 10.778 3.0833 25.51 3.991 36.946 1.1892 14.958-0.4561 30.168-1.7358 45.088-7.4319-20.166-7.0479-45.168-10.832-66.501h-2.7825c-8.0083 22.232 2.2747 43.103-9.043 93.02-3.1018-83.01-1.7595-77.639-6.2197-85.142l-2.4319 0.9077c-0.614 19.567 1.9009 50.18-3.8215 68.824-2.4285-13.576-4.3977-47.205-11.664-56.872-3.8403 4.7225-2.3606 10.981-6.2761 17.421 1.4185 9.3059-0.0474-0.8871 2.5112 30.884l-2.7974-0.1202c-0.2498-9.2028 0.2444-15.136-4.759-21.232l-4.9958 31.411c-1.645-12.815 0.4631-26.15 0.0037-39.074-0.9336-26.414-22.921-57.384-40.83-75.855 10.433 33.611 17.799 59.674 15.88 108.62-0.3735-37.456-2.0408-24.855-4.1226-39.666-5.6663-40.212-35.789-96.485-69.384-120.74-27.616-19.944-63.013-29.927-96.378-33.968 73.467-10.946 70.59-9.2068 75.829-12.695-6.3586-7.1022-11.351-9.215-20.952-9.7947-52.101-3.1385-72.066 13.445-92.108 14.709 17.953-24.678 97.942-36.285 126.19-30.598 13.38 2.6929 33.918-2.1953 48.146-3.0541l2.5112-3.6451-1.5474-7.5203c-18.943-5.554-21.245-5.7559-39.347-15.176 10.546 2.4066 28.531 6.1106 38.952 3.2085-13.392-3.0355-29.668-4.5154-41.147-12.134-10.017 2.6232-77.334 8.1569-78.988 7.1589 71.473-22.414 147.26-31.576 221.08-16.713-29.901-18.648-64.372-33.501-100.26-33.772-46.371-0.343-70.75-4.2361-168.88 42.592 40.702-43.228 121.73-74.797 180.28-76.601zm-274.67 73.988c-7.1606 11.908-14.694 30.642-25.247 39.7 0.9072-11.03 8.9341-24.531 13.659-34.574 44.208-93.928 97.42-132.67 110.71-145.42-72.88 21.46-123.88 96.249-149.12 166.48-9.1904 25.57-15.139 57.719-27.537 81.319-1.7314-12.078 18.62-119.34 65.062-187.96 16.347-24.162 36.35-44.96 53.062-68.696-143.22 89.546-145.96 267.38-160.76 351.11-22.098-214.89 87.109-427.77 203.73-395.5 25.338 7.0081 51.222 22.482 63.853 46.308 6.7654 12.77 11.758 34.563 6.1482 48.542-8.9744 22.354-46.893 39.65-72.825 58.48-13.745 9.9845-20.903 22.219-38.188 29.765 9.6318-23.45 53.666-68.524 74.064-103.95-49.385 24.425-88.495 67.676-116.61 114.41zm-46.531 454.18c-2.447 14.766-4.0811 30.903-8.644 45.118-17.643 55-45.514 107.2-64.343 162.28l-8.979 21.428c-0.8135-27.14 13.249-59.041 17.036-86.693 17.341-126.58 2.2478-222.14 40.789-254.12 4.5142-1.563 6.4717-2.2672 11.34-0.8851 34.554 9.8316 18.322 79.581 12.8 112.87zm34.392-54.258 8.0947-0.9451c19.019 10.899 19.898 23.41 19.721 43.529-0.501 54.812-31.027 86.682-57.166 131.87-17.322 29.946-39.633 68.241-46.105 102.65-5.448 28.978-15.632 58.788-23.256 87.507-0.207 6.1909-2.9966 13.745-4.2883 19.951-5.7104-73.632 54.347-252.82 71.711-304.93 8.1245-24.38 14.864-59.647 31.29-79.636zm-427.92-96.635c7.8289 40.874 25.545 43.883 36.742 61.496l-3.75 5.0199c-13.734 0.4293-26.181-3.9879-36.892-12.593-46.026-36.987-26.623-95.479-28.7-116.67l-3.2529 0.0754c-13.392 33.188-13.887 47.123-14.728 87.759-15.398-26.779 1.1631-80.796 8.4409-109.5-27.54 40.754-27.819 80.612-19.48 127.78-24.071-40.13-24.881-91.257-13.478-128.94 1.5098-4.9937 1.9993-8.3528 1.8413-13.576l-2.7561-0.0262c-8.825 26.941-15.416 53.408-17.243 81.587-12.273-15.655 4.9802-78.112 18.324-85.5 4.853-7.5806 10.267-14.758 12.187-23.672l-1.7959 0.3805c-7.0554 2.4325-14.578 10.759-17.443 17.417-4.1262 9.5992-12.104 15.47-16.14 25.107-4.7402 11.32-5.0679 23.514-10.516 34.616-4.6343-21.7 6.9365-43.398 17.567-60.92 1.5586-4.5151-0.0789-6.2965-1.988-10.326 3.6445-10.409 8.3958-17.933 15.44-26.376 35.748-42.844 66.91-60.765 122.77-65.446 40.29-6.8334 95.892 5.3524 133.27 38.129 85.629 75.091 25.95 181.18-20.801 132.03 4.0884-15.063 12.883-28.835 17.134-44.599-3.5505-15.56-8.6406-28.892-22.364-38.329-70.33-48.353-170 33.072-152.39 125.07zm113.12-341.41c-15.136-7.3583-25.987-16.761-39.795-25.423-22.635-14.201-58.985-26.967-68.296-54.371-12.392-36.447 7.5562-56.727 39.55-75.023 7.6091 10.944 14.627 23.145 28.666 26.082 9.2202 1.9281 18.222-0.3015 25.748-5.9201 4.3445-3.2459 7.4431-7.9308 10.451-12.371 16.061-5.7881 40.138 4.4965 55.009 11.678 117.02 56.479 138.39 209.16 125.98 338.92l-2.6277 1.8037c-6.5547-90.881-16.114-209.47-88.984-272.45-43.124-37.269-49.458-31.042-81.574-44.949 3.1772 9.7761 21.648 18.95 29.912 26.606 16.803 15.572 33.372 31.565 46.937 50.108 46.243 63.222 53.749 114.04 58.661 126.99l-2.8765 0.7869c-45.662-147.82-162.24-201-198.05-179.46l-1.875 1.4275 0.7717 2.5531c15.881 5.4492 32.088 9.6028 46.787 17.937 50.807 28.821 97.415 117.24 98.765 132.51-14.955-12.215-46.049-78.919-97.846-106.98-14.77-8.0024-30.902-12.149-47.016-16.509 21.876 15.592 45.887 34.374 61.696 56.058zm260.17-357.6c-7.3301 34.326 20.674 95.47-14.318 228.41-5.6624 21.507-11.321 43.047-23.896 61.662-3.2419-27.513 6.1179-63.277 9.3745-91.133 11.141-95.326 12.015-118.73-6.9727-216.23-5.6926-29.223-10.621-54.473-23.444-81.655 3.6018 99.886 13.867 217.25-5.8206 307.84-11.915-31.198-28.824-134.1-29.509-172.56-0.4668-26.3 7.6689-59.048-0.3052-84.012-8.3354 8.9026-8.166 29.257-9.3745 40.803-9.97 95.197-4.3083 132.09 2.8384 220.71-7.3223-8.7482-11.163-27.845-14.141-38.8-29.653-109.07-14.018-140.48-17.955-176.5-28.372 78.732-17.661 150.54 1.2385 229.82-23.802-22.866-44.324-121.87-45.946-156.47-3.3286-71.095 26.836-122.73 65.942-179.64 15.286-22.241 30.662-45.314 48.714-65.424l4.7739-1.2504c11.105 4.1042 24.441 25.499 34.344 38.574 42.815 56.525 87.689 129.48 88.694 202.85 0.6213 45.506-15.967 120.07-48.47 153.28 12.541-74.194 18.317-150.19-15.767-220.27zm-333.4 658.95c7.5125-24.123 13.582-40.522 46.858-55.524 12.744-0.469 24.476 1.9313 28.903 14.02-7.1987 6.8538-12.846 13.184-18.482 21.42-2.2854 12.582-2.5603 22.765 3.4788 34.668 11.042 21.77 32.024 27.976 53.454 35.226-5.3047 21.138-10.651 30.816-29.159 42.34-9.6306 1.2689-20.688 2.2369-30.281 0.2146-35.289-7.4312-66.242-52.871-54.772-92.364zm53.943 167.95 3.4038 2.4664c52.558 45.073 115.68 121.61 121.4 193.19-6.2302-6.3359-5.2046-15.953-36.493-63.202-33.127-50.014-79.703-89.838-126.41-126.4 13.012-0.8473 25.364-3.3554 38.101-6.0516zm122.22 96.759c-38.308-54.485-77.78-71.316-70.253-122.99 1.2424-8.5446 8.2639-12.864 14.773-17.571 3.509-0.9076 7.033-0.9226 10.64-1.1298 15.893 12.287 38.026 53.494 46.587 73.14 29.039 66.654 50.256 173.93 49.29 186.41-0.501 6.4735 0.0112 12.48 0.5798 18.927l-2.3342 2.124c-10.727-47.098-19.524-96.594-49.283-138.91zm32.446-44.388c-22.428-43.823-47.532-81.937-42.242-133.8 1.0051-9.8516 5.3911-18.69 12.943-25.122 7.9746-2.0375 11.461-0.9604 18.501 2.5079 30.3 38.039 31.889 112.69 37.28 160.09 2.3569 20.754 7.5789 45.02 5.4141 65.782-5.1963-10.297 0.4494 1.8334-31.896-69.461zm39.189-158.92c4.1865-1.1337 6.7163-1.6459 11.076-0.8438 6.2163 1.1449 9.2808 1.1299 12.842 6.6958 6.4492 10.081 8.0493 25.144 10.075 36.852 13.817 79.907 0.7529 169.15-15.636 248.36l-2.9407 8.153c-4.2356-24.655-4.0847-49.777-7.217-74.575-5.6174-44.492-36.181-199.54-8.2001-224.64zm405.73-1045c-0.2559 13.715-1.5059 28.632 0.2488 42.208 15.021 116.28 115.96 251.98 56.85 409.14-14.363 38.189-32.314 70.383-61.936 99.09-18.949 18.358-41.776 38.321-66.579 48.135 38.136-51.211 80.243-65.395 92.978-145.9l-2.8762-8.541c-19.288 49.299-54.023 96.454-103.96 118.81 56.565-65.472 114.2-155.75 105.91-241.97-9.5293 17.647-11.999 36.544-19.122 55.083-21.298 55.444-56.828 122.16-104.69 158.77 87.266-158.57 92.943-240.06 81.379-364.3-1.7029-18.316-4.0151-81.289-12.654-86.81-14.799 39.332 22.412 290.39-100.61 418.94 9.6252-32.376 57.714-111.5 64.075-268.35l-3.6443-2.8543c-6.1216 20.162-5.8281 42.4-10.53 63.157-15.468 68.302-65.346 175.87-76.029 192.04 5.8579-71.223 47.23-142.71 42.943-214.69-9.7285 22.64-15.598 46.124-24.299 69.013-8.1284 21.382-18.7 41.846-26.166 63.492-7.9211 22.956-13.102 47.743-24.408 69.265 2.1167-66.733 27.696-144.43 30.055-170.14-35.123 51.49-45.01 112.34-61.455 171.14-0.7832-14.423 1.009-28.481 0.7756-42.927-0.2109-13.067-5.6702-67.145-1.781-76.443 7.4407-17.802 61.694-85.55 85.998-128.1 40.628-71.126 68.877-176.6 139.52-227.26zm-182.5-107.05c2.0068 0.1694 3.8328 1.0019 5.7266 1.6611 0.6704 47.487 10.847 87.232 23.666 132.51 14.146 49.943 11.627 32.618 16.856 85.454 0.6724 23.578-27.747 108.23-82.742 164.57 70.008-118.36 51.572-179.52 39.859-236.57l-18.004-87.856c-8.8589 51.204 6.2385 97.162 4.2056 147.3-2.5415 62.671-24.913 137.5-72.456 180.76 8.7461-28.444 38.895-59.55 42.739-150.15l1.2461-1.3066c0.9788-42.614-0.0112-87.609-15.364-127.91-6.6414 21.364-3.4861 45.021-3.6558 67.224-0.4519 58.269-13.478 126.11-46.418 174.85 4.7327-40.163 17.356-75.882 18.106-117.12 0.1318-7.3697 4.0701-15.368 0.6702-22.587l-30.541 103.93-14.789-29.758c1.7007-65.982 31.099-87.702 39.573-110.38-34.178 24.433-48.085 48.391-57.046 88.746l-20.869-33.041 45.499-83.364c32.16-61.481 54.158-118.32 123.74-146.97zm-273.03 52.3c9.5928-36.657 37.453-63.432 55.755-95.347 7.6838-13.399 11.114-29.709 19.141-42.356 1.1667 10.041 1.4001 23.132 5.1089 32.478 14.264 35.981 79.704 92.014 79.786 99.497 0.0601 5.1177-11.529 22.584-14.864 26.805l-0.5911 0.4712-4.2241-30.703-30.696 116.62c-0.8584-33.279 5.3313-71.057-1.6567-103.3l-5.0183-3.8939c-18.19 16.3-11.568 79.923-23.655 118.11-12.238-74.765-6.082-168.25-11.825-178.55-10.459 20.512-20.454 101.62-18.576 149.1 0.4895 12.382 5.7568 26.854 3.8589 38.664-7.4543-6.9781-13.241-50.974-14.341-62.814l-3.2488-66.878c-16.141 62.314-7.6956 32.512-9.8376 81.704-3.5281-13.576-6.7583-28.722-5.96-42.799 0.9639-17.048 13.192-49.999 7.929-64-11.457 8.9062-18.415 36.118-20.952 50.006-1.4343 7.8589-0.5498 20.878-7.1458 25.291-7.2096-12.1-2.4736-34.781 1.013-48.101zm-141.61 4.9067c4.8232-24.361 12.831-48.357 20.173-72.059 34.039 96.661 129.63 161.54 147.43 263.77-6.7654 10.868-13.294 21.563-21.641 31.317l-17.974-54.194c-1.0054 23.842 1.438 43.97 4.7776 67.337 1.0503 7.3547-2.1497 12.088-6.3816 17.711-36.052-78.926-26.832-56.915-42.355-99.764 1.5818 71.432 11.639 73.109 26.61 130.77-36.425-48.899-46.391-104.32-58.669-162.12l-3.396 0.7155c-6.0425 70.421 21.069 127.81 47.374 190.63-63.65-67.194-62.983-151.23-67.211-237.13-42.738 101.11 13.996 210.19 18.052 223.83l0.5083 1.7849c-9.2695-7.5654-18.226-24.994-23.824-35.542-39.69-74.786-39.453-186.28-23.475-267.05zm-113.36 144.91c5.478-27.464-4.4084-62.099 10.711-86.66l3.1399 1.0128c7.009 19.277 21.282 119.77 99.285 238.61 20.471 31.182 59.194 76.998 61.191 82.747 5.7771 16.634-4.9333 47.678 8.761 112.99-10.154-10.813-8.1768-10.111-46.448-128.85 0.9111 56.137 19.032 106.36 37.514 158.77-56.104-82.394-60.617-140.36-73.021-168.37-2.3535 135.12 67.992 190.17 68.334 210.59-31.041-11.407-76.799-99.72-88.389-152.19-2.0593-9.3281-5.9263-17.831-7.3115-27.423-2.5188-17.485-1.186-35.557-3.8779-52.978-17.782 66.546-1.2046 137.55 33.173 196.56l14.808 22.998-2.1274 4.308-4.4463 0.7119c-24.779-24.094-83.007-125.87-83.536-222.11l2.4509-72.39c-25.297 69.451-33.131 125.41 1.4832 222.79 4.77 13.418 13.407 29.05 15.941 42.618-23.322-20.733-52.061-116.42-56.285-149.71-6.02-47.442 2.2664-98.334 11.965-144.75 5.0671-24.238 25.653-42.328 19.201-78.57-46 51.332-51.941 113.65-57.566 179.2-22.668-47.957 30.814-168.65 35.051-189.9zm-446.04-194.16c22.27-69.141 68.977-116.81 132.77-149.46-66.144 66.302-86.73 144.59-73.442 215.94 12.59 67.62 55.156 146.32 112.95 185.62 1.0242-13.164-24.167-18.623-62.008-105.09-34.71-79.3-34.565-155.74 13.738-230.06-22.772 105.93 18.616 109.49 30.748 162.58 8.5464 37.436 6.1482 70.312 21.223 107.1 2.7412-14.604-1.5471-29.072-0.064-43.85 7.3503-73.371 89.902-102.65 135.23-41.755-21.562-2.5572-39.355-3.2238-57.374 11.086-20.91 16.6-33.173 55.75-35.601 81.131-4.5896 47.999 10.546 88.911 40.902 125.2-5.3047-24.41-13.964-46.237-17.213-71.581-4.3223-33.704 4.4011-71.099 25.503-98.025 9.3333-11.912 18.312-16.732 33.135-18.355l2.647 3.3817c-14.044 27.562-9.6702 42.259-7.4097 83.846 2.2251 41.048 4.1978 74.952 33.873 106.32-5.4705-13.93-13.482-29.117-16.566-43.71-6.4043-30.334-4.2056-61.824 13.72-87.782 10.124-14.664 15.142-16.675 32.638-19.545 7.9424-1.1948 15.325-2.4143 26.038 1.7813 5.9375 2.3235 12.312 8.5071 14.205 14.709 4.6572 15.252-26.964 64.441-33.862 81.173-14.476 35.101-16.17 64.882-15.858 102.04 1.114 133.49 38.876 166.12 73.295 250.44-17.866-15.958-31.21-81.69-138.52-194.47-76.112-80.001-148.55-125.84-207.66-165.63-21.967-14.541-35.423-16.676-61.414-66.625-29.524-56.721-35.224-135.56-15.628-196.4zm-56.24 202.96c-66.413-21.39-132.33-41.424-201.72-50.718-90.211-12.081-186.83-16.4-277.65-8.699-146.2 12.393-387.68 77.349-542.55 163.87-85.852 47.962-161.3 106.96-239.23 166.33-64.587 49.201-155.72 95.705-239.16 83.391-42.521-6.2779-88.607-24.561-114.45-60.585-8.1849-11.407-15.206-29.468-12.936-43.537 7.8679 4.9335 7.4146 31.506 37.683 57.143 36.034 30.511 86.691 38.675 132.59 34.796 67.156-5.6756 143.86-51.29 159.81-72.266-62.057 26.802-122.55 53.027-191.72 47.48-31.083-2.4927-66.632-16.976-86.495-41.612-16.913-20.975-20.658-52.393 1.1558-67.235 6.4758-4.4022 12.262-7.2377 20.082-5.8671-8.0853 12.955-9.4164 13.727-10.945 18.31-7.6351 22.897 16.572 44.96 38.496 50.078 29.995 6.9969 62.562-5.3588 80.17-30.244 20.88-29.528 14.708-39.597 59.471-67.058-3.8103 15.832-7.5526 34.273 1.4042 48.918 7.8499 12.834 22.224 19.835 36.497 22.659 37.077 7.3432 83.34-24.248 112.95-44.475-24.826 6.7747-49.723 16.57-75.362 7.8482-15.263-5.1932-22.902-17.266-29.694-31.004 90.576-14.016 107.4-27.826 187.8-66.595 213.52-104.05 654.4-342.91 1071.1-192.98l65.958 31.927c8.9036 5.208 14.005 39.278 16.769 50.131zm-1208.5-259.85c6.5358 13.877 12.906 28.684 21.344 41.522 34.355 52.281 101.96 87.86 161.58 101.33 22.548 5.0953 45.744 6.2852 68.345 11.211l-7.5298 3.9278c-15.154 4.391-29.984 7.6823-45.876 7.1702-60.902-1.962-126.22-22.019-168.92-67.45-27.19-28.926-30.345-60.02-28.941-97.708zm-7.5372-51.459 3.3016 0.434c-50.498 100.29 3.6882 182.73 107.51 218.06 13.9 4.7299 32.57 6.4435 45.198 13.233 4.8124 2.5873 4.3566 3.4918 11.185 3.83-3.1134 1.962-9.4651 1.6154-13.226 1.9431-131.13-9.3866-194.49-91.352-192.49-164.55 0.7757-28.492 18.663-54.175 38.527-72.947zm-347.86-25.683c47.228-3.852 78.676 28.882 74.557 47.95-9.1973-4.4298-18.679-8.7967-27.842-0.9757-21.924 18.728-28.213 82.564 26.257 139.41 59.828 62.441 142.7 99.188 227.48 111.45 37.461 5.4189 75.449 5.3699 113.21 6.1948-119.18 36.395-332.92-2.6557-409.92-118.45-17.563-26.414-22.718-47.544-24.954-79.008 2.0596-12.19 3.6898-25.619 8.0646-37.225 4.6234-12.269 12.748-23.047 17.578-35.546-18.275 15.44-33.357 31.362-40.958 54.624-11.577 35.433-1.5023 84.446 15.756 116.78 49.735 93.186 143.19 117.27 236.55 146.07-83.561-1.8982-62.584-0.0141-96.209-8.8646-91.584-24.097-199.6-85.678-219.95-178.16-15.218-69.162 18.434-147.78 100.38-164.26zm-228.33 61.963c85.708-2.8484 85.82 103.61 118.96 155.63 46.704 73.313 137.56 123.98 221.34 142.5-43.756 2.0373-25.224 5.8713-86.322-16.615-83.878-30.861-155.77-76.688-205.96-152.08-18.045-29.93-24.483-58.242-31.076-92.01-13.066 124.61 63.353 182.44 173.03 243.29-50.814-8.2595-196.65-77.411-235.61-180.62-17.672-46.831-9.1818-81.115 45.635-100.09zm-173.53-41.517c9.4011-27.346 20.568-42.503 46.621-55.476 29.884-3.5468 46.274-2.8161 79.376 58.373-21.242 5.9086-38.899 15.64-50.171 35.377-3.9552 7.0122-7.0802 12.863-7.7181 21.676-4.3976 60.792 34.513 129.52 74.798 172.24 13.668 14.494 30.744 24.635 43.255 40.377-23.115-2.1969-139.39-83.695-185.96-175.91-16.524-32.714-11.83-62.806-0.196-96.66zm-95.357-59.376c35.299 5.3779 63.377 60.305 71.714 91.64 6.9037 25.947 5.6375 48.831 15.823 74.94 12.195 31.253 34.058 60.062 53.406 87.183-12.74-4.7827-23.456-16.404-33.056-25.811-111.02-108.75-94.786-194.17-110.91-216.71-3.0795-4.3055-4.0431-6.9384-5.32-12.11l8.3409 0.8702zm112.83 404.56c-121.94-70.055-294.46-238.65-320.17-333.62 17.313 17.55 24.844 33.408 38.751 51.812 136.09 168.65 268.17 342.69 663.38 378.83-39.832-13.904-293.91-36.69-495.92-215.21-73.977-65.382-156.18-177.08-178.65-223.01-21.335-43.602-38.899-94.154-22.28-142.36 7.3292-21.258 23.386-39.711 43.946-48.978 11.329-5.1062 18.915-4.8089 30.866-3.5709 28.319 2.5685 54.085 58.879 17.987 83.857-18.932 13.101-45.254 4.8934-58.436-15.117-3.5454-5.3818-3.0885-8.5523-6.3943-23.172-3.5752 0-2.5132-0.7259-4.5126 1.3042-20.969 21.289-23.653 70.386 5.6173 95.935 34.76 30.342 83.144 22.237 103.95-4.4296 8.8908-11.394 14.629-25.934 20.088-39.2 6.9765 88.227-15.97 171.82 107.52 277.17 164.27 140.14 379.2 200.67 592.85 183.52 175.82-14.114 345.56-77.682 508.89-140.31 35.499-13.61 74.161-24.015 107.88-41.24-63.009-5.7062-73.59-18.839-93.393-53.98 71.245 26.35 111.11 15.318 185.9 4.2065 183.46-27.259 243.31-43.804 427.86-8.9849 95.023 17.925 158.52 35.54 229.94 83.458 7.5562 5.0688 18.271 11.765 22.657 20.05l-20.763-11.207c-30.397-17.286-126.92-41.445-207.25-52.24-122.1-16.408-246.94-11.538-367.28 15.666-54.305 12.276-105.8 29.837-158.46 47.352-249.13 82.863-325.43 150.47-485.78 193.91-229.09 62.08-481.74 38.517-688.8-80.442zm478.25 378.48c-59.371 3.3925-116.62-21.116-156.98-78.514l-4.8756-9.9155h2.9404c52.888 69.434 154.4 83.539 236.39 63.3 11.295-2.7868 23.568-8.01 34.988-9.2188-21.046 23.424-82.117 32.612-112.47 34.348zm159.96 23.299c15.696-21.921 33.462-41.937 50.852-62.49 98.268-116.16 211.56-207.88 345.97-278.65 23.952-12.608 58.311-33.493 84.94-37.896-27.858 19.818-222.27 98.624-409.97 311.82-82.489 93.703-114.71 198.89-195.5 258.81-10.256 7.6107-30.914 21.356-43.907 21.431 101.85-59.48 114.09-138.29 167.61-213.02zm709.43 423.27c-13.66-26.347-21.86-50.218-18.312-79.298 2.3745-24.218 14.894-37.289 36.324-54.112l4.8191 0.1733-13.595 16.487c-25.293 36.551-16.46 76.665-9.2355 116.75zm49.674 39.383c-50.427-35.766-45.021-102.85-13.742-143.75 39.18-51.215 129.63-70.451 204.42-10.138 44.701 36.051 71.255 96.481 76.831 152.49 5.3796 54.078-16.415 113-50.868 154.32-70.581 84.641-169.65 127.39-278.32 136.21-114.02 9.2527-217.7-33.441-303.01-106.66-78.02-66.953-152.51-185.45-160.4-289.61l-0.6967-69.691c-18.467 45.973-25.325 138.86 3.0609 226.3-80.927-134.77-39.139-212.86-33.206-281.24 4.5066-52.002 2.3982-102.88 9.4874-154.89-35.054 14.982 12.635 206.85-98.829 265.07 37.018-101.77 29.872-154.98 53.948-233.17 31.293-101.66 137.75-268.42 288.55-378.54 58.993-43.083 169.8-94.642 216.96-110 25.737-8.3866 53.917-12.981 78.325-24.704-141.67 6.7089-468.48 164.22-621.52 466.02-19.557 38.557-47.66 124.4-90.99 127.32-7.8613 0.5308-16.84-3.3101-22.59-8.5898-11.351-10.432-15.045-31.803-18.753-46.199-7.9253 14.167-16.905 30.864-17.714 47.476-0.3011 6.2363 4.4653 24.598 3.0724 28.293-0.3207 0.8461-31.093 32.267-70.095 42.934-40.198 10.993-83.506 9.042-122.98-4.0029 15.786-1.6947 32.653-2.783 47.965-6.9783 72.972-20.009 105.73-77.768 172.98-167.82 8.5046-11.279 20.24-29.49 31.606-37.553-7.1588 29.422-38.21 66.74-31.795 94.556 2.9742 1.9169 3.3582 3.2839 7.0215 2.3613 19.727-4.9733 65.873-97.152 68.081-101.28 189.49-354.43 614.14-535.74 1029.2-475.51 212.38 30.813 404.26 125.07 569.09 323.23 65.795 79.1 85.823 126.2 102.61 179.95l-38.474-0.5873c-66.876-106.21-142.22-205.42-240.74-284.61-433.03-348.1-1114.2-171.99-1229.7 355.8-6.0352 27.581-11.976 57.926-13.486 86.128-5.8053 108.24 26.852 224.92 85.392 315.97 115.83 180.14 357.27 235.35 540.32 113.79 50.589-33.599 78.668-77.957 90.535-137.45 12.512-62.726-25.768-163.09-109.5-184.21l-11.909 0.9341c6.2756 9.6683 28.803 6.6671 42.683 42.735 8.0641 20.95 10.079 49.061 0.5647 69.762-24.063 52.338-102.11 54.821-143.38 25.547zm-222.71-406.07c2.1609 15.255 14.348 34.962 26.663 44.35 9.4255 7.1798 46.218 5.755 55.574-6.8428-9.5518-9.9456-9.7029-18.885-11.874-32.45-2.4659-15.391 2.0781-33.493 4.8002-48.748 27.819 17.767 51.365 42.43 58.842 75.78 17.135 76.473-74.278 90.1-117.63 59.312-15.109-10.732-21.298-26.101-34.494-37.854 16.642 52.489 33.459 70.118 67.991 94.982 6.4869 4.6696 20.782 12.906 23.139 20.832 2.4132 8.1232-0.1017 20.629-3.4752 28.052-13.049 28.735-61.297 29.695-88.28 14.201-29.412-16.882-45.974-54.458-62.343-82.494 18.497 62.359 52.362 106.48 104.93 144.32-5.7375 12.656-39.367 13.28-58.326 4.2666-35.085-16.675-46.99-43.175-66.101-73.927 8.4373 48.146 25.097 87.051 66.496 115.61l31.953 17.73c-18.753 8.4091-42.751 15.775-62.886 8.0475-60.519-23.226-68.794-66.371-81.405-81.082 9.849 50.714 43.318 72.819 49.806 98.458l6.9352 25.747c43.769 183.4 338.4 275.81 455.81 72.195 4.8807 0.4635 6.2834 0.8033 10.289-1.3066 2.2252 5.0651 0.6554 6.7671-1.2762 11.727-30.683 78.728-154.54 126.37-249.45 116.37-11.886-1.2542-22.062-5.2871-33.512-7.283-71.119-12.39-141.42-78.608-181.02-136.1l-38.124-69.562c14.63 76.695 56.801 145.26 121.77 190.18 64.327 44.475 126.55 44.993 138.33 47.981 2.5449 0.6479 4.2957 0.147 6.8182-0.0413 6.6752-0.501 13.508 1.3932 20.364 0.8964 109.28-7.9088 199.53-75.914 230.72-129.59 3.1099-5.359 7.816-18.291 13.094-20.757 8.4185 92.502-261.95 269.22-488.29 69.747-96.133-84.72-134.49-195.33-142.26-320.51-8.9683-144.48 65.009-312.24 159.8-419.44 4.9922-5.6449 10.926-12.988 17.221-17.134-7.8868 19.757-44.864 59.466-76.292 132.53-39.618 92.101-50.966 201.61-12.997 296.03-0.5573-57.119-4.1531-158.14 31.674-257.1 31.475-86.953 81.04-157.41 147.56-220.99 18.373-17.556 39.904-37.786 62.961-48.636-23.584 25.784-195.54 180.41-187.65 365.29 1.4684 34.454 11.916 72.96 38.116 97.148 11.567 10.681 34.499 28.044 49.591 23.073l2.6354-3.7622c-6.4604-5.9915-14.612-9.1772-20.892-15.38-89.369-88.28-45.385-401.75 277.31-516.95-71.639 46.9-230.28 132.98-264.49 297.89-9.0055 43.415-1.5932 50.656 1.8787 75.204zm427.45-64.294c-15.802-21.688-29.099-44.087-58.774-45.548-6.6488-0.3277-13.524-0.7043-20.116 0.4332-58.844 10.151-81.684 97.463-43.925 122.48 12.296 0.9076 13.463 1.2766 23.843-6.5902 7.6843-15.888-4.6799-39.402-3.4186-56.819 1.1715-16.167 24.656-31.45 37.947-30.398 14.142 1.7213 24.005 0.7406 37.807 22.248 24.904 38.812 4.0105 90.54-30.857 111.06-16.295 9.5916-51.869 23.329-70.829 17.805-4.405-1.2842-4.1-0.8209-8.2979 0.5049-38.041-9.9496-65.427-22.859-89.91-55.614-26.753-35.794-31.335-84.856-25.063-128.08 5.3711-37.005 34.993-89.335 57.524-112.16 32.706-33.136 74.914-51.833 111.86-78.977l-2.4285-0.0831c-36.305 2.8584-75.46 32.59-100.52 57.03-62.151 60.622-90.057 126.12-91.182 212.75-28.966-83.783 6.9015-194.44 116.35-265 62.593-40.362 192.17-78.661 330.13-65.695 26.129 2.4553 52.532 4.7149 77.923 11.633-15.892 0.8622-31.881-2.5646-47.415-1.2126-25.59 2.2292-51.621-0.2864-77.606 1.9882-179.88 15.757-315.25 119.7-321.06 298.04 11.63-20.253 19.818-42.467 31.23-62.89 55.539-99.4 198.45-190.5 377.88-193.47 24.468-0.4067 49.437 3.1183 73.954 4.3044-9.0042 7.5508-164.66-23.054-318.37 110.64-17.213 14.973-34.441 29.204-48.454 47.363 27.077-9.9532 52.182-29.426 77.332-43.544 121.06-67.962 301.27-92.068 440.71-35.734 17.187 6.9404 35.778 13.598 50.311 25.288-18.237 0.7043-46.659-11.896-65.239-16.558-169.38-42.482-349-2.7056-421.34 154.81zm170.75 60.498c-30.556 1.4772-32.476 3.3253-58.616-8.01-6.0654-2.6321-5.6548-3.4796-8.0605-9.4672 4.3176-2.4064 7.4697-2.6293 13.075-3.7019 9.179-0.1243 21.193 6.0894 30.394 8.153 10.647 2.3914 23.23 1.6196 33.297 5.3854-1.9313 4.2515-6.0917 5.4002-10.09 7.6407zm324.35-12.612c-11.939 1.1035-23.606 0.7532-35.533 2.6246-51.033 8.0062-97.85 28.191-128.54 71.284-29.474 41.384-35.927 100.4 8.9529 128.04 30.413 18.735 55.194 15.263 88.25 7.2418-22.522 25.348-41.376 40.603-76.047 42.878-47.53-3.7897-92.772-40.989-96.8-99.953-6.7126-98.326 78.909-168.43 184.28-173.97 30.338-1.5966 82.568 6.2779 105.12 26.828-16.129-1.0848-33.621-6.4585-49.689-4.971zm29.829-75.426c-53.526-28.556-109.56-54.744-170.76-60.084-55.453-4.8351-114.9 4.4588-158.68 42-10.474 8.9852-21.69 18.95-29.265 30.5 18.899-8.8725 32.261-21.841 50.6-30.726 99.533-48.235 222.72-20.15 306.48 40.66-59.433-16.069-124.81-27.005-181.35 4.8917-49.154 27.732-83.958 77.471-108.55 126.92-5.4668 10.989-8.1021 25.495-14.104 35.418-8.4534-43.884 19.78-74.538 21.712-93.653-16.601 15.47-24.295 47.129-31.268 53.468 9.2471-58.7 45.357-110.91 90.975-142.44 13.832-9.5612 29.769-16.475 44.14-25.457-73.374 3.6664-135.36 74.767-158.96 91.272-6.1331-2.8054-12.165-3.7054-18.825-4.4436l-2.1836 3.2839c-6.1858-6.6112-1.6082 0.0594-37.977-9.588-17.227-17.93-14.034-8.1744-24.796-20.535 1.3689-15.73 11.227-24.616 24.333-35.139-15.913-4.9936-21.533 7.7988-34.287 14.724 9.4612-16.314 24.856-38.995 42.841-46.162 10.015-3.9917 16.084-9.6443 23.719-17.15 5.6401-1.1525 11.122-5.8335 15.88-9.072l-1.6301-2.8619c-32.321 3.6765-59.169 27.193-78.032 52.993l-1.1033-2.5118c13.038-28.549 52.317-51.758 78.638-67.488l-2.8914-1.2654c-17.21 6.7999-28.398 17.84-46.12 24.67 52.719-74.866 379.28-119.13 543.23 117.29 5.7603 8.2999 14.438 18.37 16.961 27.98l-27.303 6.1119c-44.397-52.661-65.034-68.184-131.43-103.61zm-304.87 94.202 1.7432 0.7306 0.4705 4.2893-1.7581-0.3314-0.4556-4.6885zm410.48 339.17c-3.9268-17.594-12.439-42.678-8.9644-60.235 2.8164-14.246 2.0483-28.586 5.5535-43.002 3.7046-15.636 11.074-25.649 19.348-40.37l-2.5076-3.423c-15.173 5.3475-20.575 13.354-27.152 27.532-16.325 35.21-8.6746 75.9-5.3201 112.78-22.778-48.952-21.038-99.128-3.6443-149.96 2.1309-6.2251 12.586-19.029 10.73-24.357-24.126 19.929-28.365 53.226-36.29 81.779-0.9148-35.09 9.582-73.697 34.171-99.866l8.2036-1.047-5.7979-4.3722c-12.247 3.5551-27.766 26.041-33.986 37.312-24.024 43.533-17.018 84.912-7.2549 131.2-90.881-151.31 84.956-303.26 263.7-255.85 78.162 20.728 162.15 91.431 181.17 118.26-50.269-29.803-87.749-58.382-149.23-62.969-60.062-3.2877-122.56 8.4128-168.75 49.468-30.296 26.926-41.659 56.526-57.031 92.5-5.3164 12.435-13.399 27.204-14.171 40.784-0.9486 16.713 1.3368 37.892-2.7821 53.844zm69.244 58.525-3.6707-1.1221c-5.7756-25.887-0.4219-47.423 8.6252-71.536l-3.0422-3.0918c-11.942 10.88-14.434 32.8-17.025 47.924-12.27-50.008 3.8113-51.89 8.844-83.948-13.596 18.55-20.346 34.141-27.172 55.949-1.5073-5.0442-1.1128-3.5554 0.3464-69.167l-18.588 36.076c-3.1699-22.972-3.938-19.09 4.4841-45.898 28.101-89.508 86.149-134.15 195.2-135.96 52.653-0.8707 129.46 32.737 143.47 47.676-20.346-5.7034-79.488-27.187-91.277-27.702l-0.8811 4.3722c26.242 8.8346 129.74 45.062 142.4 65.725-9.2505-1.6986-19.363-10.025-28.019-14.122-8.5955-4.0707-18.09-6.4808-26.912-10.153l-3.7649 1.7135-6.2761-4.8353c-8.48 1.6252-112.7-22.308-198.55 55.93-43.722 39.846-75.422 92.463-78.201 152.17zm15.718 283.65 2.895-3.6605c-10.19-36.066-49.982-34.546-87.444-34.243 29.118-25.548 59.248-35.083 97.718-32.721 52.472 3.2158 122.16 45.487 155.73 84.385 6.4795 7.509 16.264 24.493 24.148 28.921-0.5422-9.8287-7.5376-20.313-12.646-28.492-32.45-51.972-79.406-89.281-139.82-103.08-60.427-13.802-107.7 1.7021-158.39 33.456 91.716-132.58 280.93-34.208 368.54 100.92 13.313 20.531 22.382 43.582 35.254 64.471-20.786-83.978-73.408-163.45-144.21-213.45-22.134-15.636-46.256-27.234-68.755-41.902 16.539 1.3181 32.792 11.697 47.088 19.56 57.279 31.513 97.741 66.384 140.1 116.1 93.43 109.65 128.34 243.66 138.31 384.44 5.9551 84.035 3.8726 83.21-1.3516 223.71-0.3389 14.641 1.2275 32.804-1.8374 46.87l-34.577-56.586c4.0181-10.172 2.1846-16.935 4.1719-26.334 12.178-57.579 8.3323-231.28-76.68-360.37-110.81-168.25-321.82-161.26-380.9-96.458-21.366 23.43-14.955 62.008-1.0955 81.572l5.8958 2.8622c2.4321-3.6605 2.741-3.1068 2.6282-7.8368-0.2673-11.215-0.4182-21.917 8.3203-30.337 7.4543-7.1852 20.926-11.523 31.143-10.718 9.4688 0.7491 18.569 6.3038 24.562 13.591 4.3865 5.3362 4.9885 13.267 5.9072 19.891-9.3623 35.978-44.385 45.364-81.345 43.578-25.5-14.521-45.209-34.386-52.668-63.469-21.055-82.109 62.191-174.91 149.3-154.66zm156.2 274.19c6.3779-0.4971 12.063-0.4066 18.403 0.4482-24.724 27.231-41.143 52.458-50.363 88.106-10.884-6.8323-17.491-12.214-18.346-26.304 2.157-3.8489 5.9636-9.0117 5.9636-13.47 0-23.513 24.166-37.028 44.343-48.779zm-24.942-87.902c-21.784-9.2225-46.884-13.847-67.667-23.778l4.6538-3.0201c12.955-0.369 27.954-0.1619 40.751 2.0186 66.62 11.358 135.78 61.583 175.01 116.3 43.929 61.27 57.66 128.95 60.864 202.96 1.1672 26.877 2.1421 54.51-2.2627 81.15-26.082-49.988-8.1804-104.98-42.57-201.17-29.261-81.851-89.352-140.83-168.78-174.45zm-771.16-20.603c0.5461-27.536 12.673-80.329 32.367-100.03-2.7642 17.479-8.532 33.269-10.93 49.732-6.9688 47.838 3.9648 107.76 32.002 147.54 13.516 19.179 31.855 33.444 51.47 45.905-19.96 1.334-46.567-18.259-59.926-31.35-28.508-27.943-45.774-71.815-44.983-111.8zm-141 243.42c70.626 43.496 78.034 15.894 106.75 22.742 25.436 6.0706 54.365-1.2805 79.297-7.0535l0.8169 2.3462-11.656 12.017c-15.722 11.768-37.404 24.222-57.377 25.295-6.4568 0.3462-11.57 2.606-18.049 2.1199-45.288-3.404-70.852-24.391-99.782-57.466zm85.219 86.509c-5.1918-2.2974-9.4199-4.4663-13.882-8.0027 45.325 2.3501 59.867 20.666 119.89-9.3545l6.1143 0.8853 0.6438 5.3889c-28.394 40.29-79.188 21.53-112.77 11.083zm66.082-21.187c7.959-7.8557 18.806-11.787 28.263-17.59 9.4272-5.7803 17.669-13.79 25.794-21.251l3.0195 2.8245c-5.5513 23.681-36.409 29.845-57.076 36.016zm146.96-68.949-11.539 10.955c9.3635-23.61 42.178-48.778 64.809-57.256 75.274-28.197 87.29-17.529 103.67-30.262-9.2036-11.447-56.403-0.7605-68.8 1.333-40.668 6.8728-83.062 14.442-119.92 34.051-30.27 16.102-76.374 56.673-94.458 57.809-20.456 1.2766-56.57-24.326-57.513-42.497 6.3704-5.3777 17.21-5.8823 25.255-5.2949 26.253 1.9204 47.668 14.517 72.633-2.041l1.9314-4.4551c-9.6299-16.044-9.5098-6.6462-14.024-25.099 11.393-12.563 55.3-0.5042 89.864-3.4609 48.3-4.1311 98.415-19.71 146.35-28.831l2.3303-3.3965c-28.474-15.299-71.402 18.59-155.07-16.638-41.426-19.499-76.473-44.584-92.376-89.096-14.158-39.633-17.515-89.989 7.5334-160.14 1.5701 33.298-0.0601 62.826 26.9 87.191 39.777 35.947 71.259 11.034 86.352 14.54 8.9302 2.0713 20.282 9.6028 29.69 12.796 8.1738 19.71 16.728 41.221 28.738 58.932 43.059 63.521 117.25 107.96 188 136.15-24.562-1.1072-49.396-3.9768-73.962-3.7734-60.355 0.4932-141.01 16.897-186.4 58.487zm16.825 663.75c-53.752-66.233-57.652-158.86-48.68-240.19 13.351-121 72.479-225.51 167.43-301.09 22.537-17.94 46.019-31.626 70.976-45.792 11.532-6.5454 24.22-15.636 37.566-17.602-19.477 18.247-48.032 30.556-69.632 47.713-96.928 76.992-175.31 180.76-182.03 309.05-1.1748 22.49 2.7861 42.772 5.9336 64.81 4.1836 29.326-2.0718 85.125 53.541 145.13 24.254 26.161 51.602 41.53 88.043 42.532 74.807 2.0498 104.88-57.101 62.671-97.456-25.04-23.944-69.006-31.474-80.701-114 9.4009 5.6448 14.939 13.779 23.512 19.981 49.211 35.579 176.14 7.1711 158.26-68.508-1.5701-6.6465-7.2927-14.028-7.4395-20.46 95.512-24.41 65.013-96.991 69.952-110.41 4.8567-13.199 37.163-30.575 50.517-33.836 13.614-3.3252 31.215-1.4536 45.285-1.3372 0.0339 20.366-1.0581 35.004 14.344 50.478 6.6716 6.7029 13.52 8.6536 22.59 10.344 21.515-16.064 37.494-26.896 66.929-16.596 70.325 24.614 114.24 87.97 145.51 152.31l20.387 53.204c18.886 74.646 27.324 163.91-3.7273 235.1 2.27-21.39 6.114-43.319 5.6663-64.855-2.3738-113.85-95.151-241.59-210.93-252.88-68.439-6.6653-133.59 1.1714-187.41 47.205-98.979 84.662-78.282 192.04-83.999 204.28-3.1621 6.7524-16.746 20.234-22.525 25.408-43.311 38.763-160.23 41.273-212.03-22.539zm402.89-501.29c26.343-3.4155 63.883 4.3687 89.413 11.218 70.75 18.994 133.96 70.17 146.6 91.905-55.012-38.811-104.87-77.537-191-89.747-15.011-2.1316-31.475-4.7678-46.561-2.8247-23.896 3.0806-44.863 13-68.198 17.026 21.555-14.823 44.136-22.953 69.745-27.577zm-22.021-14.001 4.627-3.8447c68.14-22.428 144.49-2.6228 205.84 32.337 11.984 6.8274 22.006 16.878 33.842 23.548 11.61 6.125 18.352 14.805 28.207 24.263 24.386 23.408 58.322 52.255 68.439 85.21-8.8076-4.9478-22.606-37.237-77.825-83.85-47.22-39.862-113.56-70.399-175.28-78.318-29.464-3.7773-58.435-1.7776-87.854 0.655zm-16.705 984.74c5.429 2.4968 12.85 2.8774 18.825 2.5647 32.45-1.687 33.681-46.979 52.423-67.247 19.208-20.776 54.791-30.733 82.211-31.618 36.238-0.3867 65.671 4.9194 103.87-7.1174-8.1135 6.9895-16.758 14.83-26.765 18.953-25.379 10.454-67.178 8.2209-88.758 24.689-24.561 18.753 13.458 52.74 59.493 41.579 12.101-2.9336 25.538-11.105 35.951-17.797 51.809-33.29 84.157-89.62 115.23-140.96-15.489 57.651-60.841 127.37-103.15 169.08-63.337 62.433-113.03 48.734-182.32 48.278-31.019-0.207-74.007-10.582-95.938-34.096-10.903-11.693-24.905-39.696-23.064-56.036 2.2793-20.262 19.541-37.164 45.119-31.509 8.3318 1.8452 10.512 5.6035 14.807 12.247-2.0969 2.3987-3.4863 3.5286-6.6074 4.3569-31.667 8.4056-34.941 43.474-1.329 64.625zm327.76-195.78c-34.758 40.046-70.37 52.353-121.95 55.866-5.7979 0.4067-7.6992-0.365-12.549-3.1067l-0.9148-3.7734c23.896-5.7317 43.94-16.864 65.45-28.485 103.07-55.668 111.51-109.07 161-187.37l3.7424 0.4707c2.0896 19.466-2.2551 47.208-13.712 63.526-1.5022 2.1426-3.5164 1.6682-5.9822 2.0598l-5.6135-6.293c-10.922 6.4004-17.472 47.204-69.47 107.1zm-307.01-164.78c-30.97-8.9438-53.62-21.721-72.652-48.583-22.225-31.366-27.762-64.166-21.697-101.6 1.5813 0.5615 3.1738 1.676 4.6384 2.5122-0.499 66.171 31.98 114.15 89.71 147.67zm48.684-210.94c23.324 1.2883 40.028 3.8979 60.54 15.704 37.653 21.678 44.126 73.338 23.267 107.1-12.481 20.196-32.408 27.63-54.388 32.529-19.536 0.324-39.615-1.5776-57.442-10.217-53.791-26.07-63.3-116.84 28.022-145.12zm136.26 109.19c-0.8845-39.101-15.387-79.274-44.204-106.7-39.412-37.505-86.281-31.557-148.13-29.4-26.878 2.625-42.694 27.928-58.646 46.343 3.2529-25.668 6.7241-49.077 21.151-71.141 26.347-40.302 68.228-59.579 113.9-68.813 31.068-1.5779 63.589 0.8359 92.772 12.612 100.67 40.621 170.61 179.36 109.64 324.29-31.877 75.769-80.027 120.45-155.79 150.32-145.92 57.544-302.75-11.539-350.29-132.81-2.7671-7.0571-6.2988-11.301-3.2002-18.384 44.386-16.211 70.807-31.438 93.615-86.795 11.099 33.045 21.272 56.789 46.794 81.719 102.54 100.18 285.4 30.944 282.4-101.24zm-507.39 189.67c-2.948-10.344-1.28-18.053 3.4824-27.253l5.3083 0.4707c20.762 70.24 58.023 90.99 76.921 116.21-29.927-17.372-75.803-54.654-85.712-89.424zm150.34 62.005c-47.788-33.2-89.812-80.058-109.24-135.5l-1.0654-7.3696c8.6819-3.5552 22.706 0.2749 32.134 1.032 4.4009 13.884 8.4221 28.711 15.097 41.68 56.415 109.62 204.31 163.96 339.12 119.99 65.345-21.315 104.88-56.402 119.92-62.615-15.144 21.903-84.356 68.227-160.22 81.937-75.17 13.587-171.57 5.4454-235.76-39.154zm90.113 255.99c52.354 40.242 68.49 22.696 131.52 22.757 14.22 0.0151 29.065 5.4683 42.671 4.9521 6.4458-0.2449 14.002-3.7056 20.579-4.9858 31.633-6.146 60.427-12.593 89.187-27.675 101.84-53.411 165-190.49 194.94-295.66 6.4641-22.7 6.7654-46.734 13.896-69.736l2.1421 8.2358c5.1392-0.9756 3.9832-9.5916 8.5764-14.246 1.7432 14.129-2.1196 29.132-4.5706 43.062-13.828 79.221-62.214 178.03-96.837 256.33-26.039 53.961-20.908 48.167-60.45 79.098-120.69 94.399-171.41 92.603-249.2 59.798-28.09-11.847-80.362-32.356-92.459-61.933zm497.01-463.21 1.1069 0.7119c4.4424 17.169 0.6174 37.425-2.9631 54.507l-2.3604-1.2542c-3.5393-16.167 2.0782-37.684 4.2166-53.964zm-434.83 813.62c45.725-22.755 123.49-84.818 130.52-139.07 2.2764-17.579 5.5366-60.999-6.4905-74.131 0.6775-5.4644 0.2822-4.165 5.7529-5.6562 40.661-11.083 69.854-23.962 102.79-50.44-93.354 42.908-91.954 32.861-115.84 40.238-33.007 10.233-117.94-12.655-138.72-30.824 32.348 7.3359 64.708 16.042 97.918 18.31 58.198 3.9692 127.92-20.166 175.6-53.238 16.095-11.165 30.861-25.231 45.612-38.117-64.206 105.99-113.25 105.58-153.38 125.04-1.6379 8.0852 0.9751 17.97 1.6492 26.259 4.3425 53.514 1.1714 64.073-24.95 92.485-31.614 34.386-98.149 99.606-145.09 101.72 1.8107-4.7828 19.095-9.829 24.634-12.578zm60.366-77.211c2.1611-14.002 14.359-25.623 19.043-39.621 11.434-34.186 16.091-70.387 27.992-104.12 1.7886 43.277-5.7866 78.876-28.188 116.73-4.6799 7.9043-10.267 18.995-16.758 25.521l-2.0896 1.4914zm109.76 81.428c-66.964 67.027-83.81 66.498-200.78 26.271-0.0488-0.3635-0.0979-0.7278-0.1467-1.0913l28.726-0.9277c75.502-6.5901 133.23-53.185 179.48-108.97 67.179-81.011 194.12-307.34 258.55-528.9 11.122-38.246 16.716-79.041 25.349-118.03 9.0469-40.863 22.262-83.357 23.76-125.29 5.4927-153.64-24.343-194.45-30.398-259.58l2.6543 4.1272c3.5527 7.3123-1.4695-2.3523 15.982 58.141 43.669 159.27 26.275 326.38-18.237 483.43-7.0364 24.843-17.162 46.831-101.99 243.47-69.198 158.74-77.757 222.18-182.94 327.35zm70.212 311.62-2.2664-0.8281c-10.067-79.46-8.6821-164.76 8.23-243.35 15.317-71.139 13.66-51.24 206.51-558.54 36.184-98.499 51.47-97.376 77.396-286.14 22.918-166.78-59.784-397.92-155.66-524.44-60.751-80.175-157.22-136.84-256.27-150.99l-22.51-2.749c-47.415-4.2893-104.73 10.894-140.74 42.723-58.834 52-62.524 135.58-33.775 167.58 13.045 6.5405 27.665 10.146 42.065 8.1155l1.0806 1.8303c2.3376 5.6448 1.009 16.946-0.855 22.795-2.9741 9.324-11.78 18.75-20.462 23.114-15.014 7.5469-38.094 2.9263-53.202-3.6567-17.336-7.5476-34.493-33.388-42.148-51.321-2.1548 44.668-7.4492 96.747 35.424 127.71 5.418 0.2749 9.2693 0.0564 13.633 3.7656 0.0076 6.0291 0.9375 10.123-2.3154 15.357-6.5581 10.559-14.623 11.99-25.929 14.408-9.0496-3.5405-12.182 0.8801-25.101-12.755-32.646-34.484-33.176-99.776-31.471-143.71 1.6604-42.731 15.353-86.976 27.239-127.7-21.437 35.354-35.639 66.309-44.592 106.95-2.1533 9.7764-6.197 22-6.1934 31.916 0.0115 55.998 0.5122 102.98 38.263 148.44-77.001-45.086-105.09-84.413-93.897-172.99-32.94 62.061-58.544 132.91-39.065 203.68 11.423 41.514 35.71 70.937 72.772 91.898-15.022 11.489-31.542 23.898-51.049 24.994-53.551 3.0229-89.956-59.268-93.14-111.48-13.178-216.05 165.37-412.48 360.4-445.67 17.635-3.0012 36.151-2.9939 54-4.0786 58.849-3.5813 127.31 15.372 179.59 41.794 18.757 9.4792 35.126 22.096 54.814 30.063-21.8-23.887-138.37-99.676-262.61-105.12-117.75-5.1628-224.16 35.569-310.25 115.57-155.4 144.41-214.31 340.5-145.96 549.76 6.314 19.326 18.798 42.614 21.276 62.377-15.575-13.56-93.014-166.04-65.604-311.91 18.12-96.451 58.364-201.75 122.88-277.09 35.594-41.564 80.129-76.021 125.1-106.89 86.966-59.696 206.51-76.71 308.61-57.523 137.6 25.856 268.74 129.36 346.48 242.66-17.402-49.551-58.258-89.458-98.076-122.18-166.21-136.6-252.98-138.2-354.06-163.2-78.51-19.42-162.07-68.346-216.76-127.85-122.89-133.71-32.911-382.72 127.03-372.6l35.567 0.7119c-16.189 12.054-31.682 23.856-42.536 41.251-9.9695 15.975-21.646 59.786-24.171 61.884-6.3438 5.2687-19.408 2.1315-26.204 9.3394 8.1438 5.4734 16.772 1.1974 26.596 7.1779 7.571 4.6129 14.981 14.126 16.648 22.942 1.5325 8.1152-0.8657 14.513-5.8618 20.735-29.311 7.1307-46.545 18.046-47.325 48.323-1.1333 43.778 17.379 81.734 41.979 116.87 104.7 149.52 295.82 187.74 376.66 230.39 66.827 35.263 135.76 88.286 187.36 143.82 49.682 53.46 85.392 132.4 110.19 200.52 61.865 169.98 53.545 352.7 12.048 526.46-111.8 383.04-146.1 451.45-224.82 647.47-26.058 74.09-61.745 235.75-64.971 329.36zm556.3 709.9c158.4 111.25 92.76 282.02-16.98 235.36-26.231-11.126-47.641-50.557-34.589-76.258 5.832-5.1968 11.83-11.147 18.904-14.612 15.49-7.6406 35.991 0.0776 42.216 20.072 2.1836 6.9668 3.2866 14.8-0.177 21.202-11.127-0.4985-16.034-5.3057-25.12-12.879l-4.5518 0.7148c0.3689 5.1592 0.8396 9.1138 3.5015 13.633 5.9597 10.13 17.544 22.106 29.317 24.365 45.387 8.8555 63.368-67.716 5.7451-107.74-29.75-20.637-68.152-17.962-101.76-27.114-23.196-6.3271-44.031-19.018-64.06-31.972-234.69-151.79-364.69-500.32-360.43-774.29 3.0344-195.22 77.392-383.34 139.4-563.45 25.484-66.266 122.16-235.05 149.76-444.72 23.707 139.55-41.001 281.07-117.98 489.49-97.861 265.92-151.21 536.81-69.862 806.84 48.782 161.89 148.35 329.13 286.25 429.68 28.44 20.75 58.959 35.549 89.824 52.119 13.365-11.485 21.509-25.607 30.597-40.445zm-113.75-625.69c15.319 12.928 44.714 13.767 60.37-5.0461 5.2446 0.6025 7.5637 2.6736 11.818 5.5359 0.9827 18.904 0.7041 29.75-7.7705 46.772-9.2939 12.299-22.513 24.93-37.887 26.248-26.252 2.2593-51.015-6.063-71.206-22.558-72.49-59.236-125.58-160.01-134.48-252.65 21.513 57.994 36.064 108.98 95.539 139.6 15.967 8.21 36.493 11.863 51.108 21.805 16.31 11.071 19.4 29.223 32.503 40.294zm-41.546-921.88 2.7747-0.6548c9.7324 11.802 28.229 46.978 21.4 62.772-6.8079 15.755-131.9 131.05-142.63 364.11-3.1287 67.97 3.0193 165.28 51.997 217.58 22.382 23.875 50.04 39.466 82.7 40.257l-0.915 4.7073c-8.3816 10.817-11.621 12.682-21.332 16.231-6.7144 2.5549-7.054 3.3452-13.78 2.1841-24.882-1.5437-39.456-12.389-57.754-28.583-1.2454 20.35 32.452 42.67 50.537 46.621 32.611 7.218 64.416-10.888 72.237-52.571 2.6951-14.35-2.8267-24.473-11.182-35.776l3.8628-3.4646c25.869 7.105 72.217 80.698 19.984 130.86-14.401 13.821-44.452 19.808-63.906 18.792-27.992-1.4688-54.557-20.034-72.414-40.52-51.572-59.048-60.664-154.78-63.318-230.09-5.3911-153.01 22.662-162.09 24.879-232.71-18.606 42.407-26.023 92.12-35.812 137.22-28.365 130.63-62.182 276.45-11.329 405.92 20.575 52.382 58.962 92.225 100.01 129.24 20.843 18.829 43.831 38.11 69.824 49.408 55.455 24.113 107.06 1.8032 123.59-38.035l6.4944-18.302c5.5588-13.596-3.2778-43.832-23.131-57.918 5.6924-4.4065 14.592-6.2517 21.663-5.0461 19.574 7.0461 37.774 15.886 46.286 35.248 10.922 24.817 12.187 61.759 1.6377 86.916-21.841 52.08-104.13 91.762-181.27 57.956-24.976-10.958-47.976-28.394-68.333-46.358-82.979-73.163-128.85-173.06-134.79-283.6-1.0693-19.808 1.0427-47.111-4.7927-65.676-5.5308 30.315-6.8447 60.668-8.4373 91.359-6.4644 124.72 6.8071 277.47 80.208 383.25 21.423 30.842 43.285 51.29 80.965 58.032 22.737 4.1045 50.732 7.5317 73.83 6.2134-39.249-33.064-69.926-63.417-100.37-104.95-10.363-14.152-24.2-32.662-23.274-48.09 12.068 7.8115 7.8311 18.79 48.759 49.671 23.463 17.7 49.087 35.814 79.714 31.294 22.026-3.2144 59.688 62.499 28.173 116.44-20.184 34.533-54.384 39.391-91.393 32.951-11.747-2.0332-22.383-7.644-34.438-4.6694 70.403 59.844 138.12 11.631 192.65 53.965 9.9998 7.7192 19.28 18.339 20.079 31.482 0.8433 13.934-6.0315 28.282-15.376 38.224-26.178 27.867-62.874 25.72-98.012 26.473l48.903 26.361c19.28 12.993 44.866 41.312 49.087 65.149 1.8635 10.544 0.1094 26.135-6.0164 34.985-74.154-32.085-136.59-98.439-185.63-160.88-19.024-24.177-38.568-49.031-54.053-75.693 32.838 34.458 60.532 65.036 110.52 70.836 25.165 2.8994 45.977-2.1851 69.726-9.98-30.062-1.9458-50.611-0.7988-76.025-12.39-69.368-31.635-222.69-287.69-214.8-566.76 0.6135-21.616 4.5332-44.249 6.6902-65.864 10.139-101.56 32.194-200.53 57.385-299.27 40.766-159.81 44.682-197.62 125.28-323.02 50.283-78.244 54.932-86.312 42.675-111.82zm-44.603-867.9-1.0242-1.1711c2.9102-24.719 10.624-49.555 17.45-73.438 39.664-138.79 113.53-294.09 252.8-334.07 37.02-0.384 54.207 2.233 87.18 19.646-26 4.2516-48.824 3.3367-74.007 13.666-132.64 54.401-210.16 187.07-262.26 313.6l-20.146 61.771zm307.26-134.64c-54.984 30.46-122.52 87.494-152.29 117.74l-36.874 40.035c-5.3875 6.0215-11.991 15.824-19.103 19.62 6.3511-31.656 99.265-196.79 278.61-214.58-22.815 15.014-46.73 24.113-70.336 37.191zm212.62-147.76c29.442 30.417 49.584 83.443 47.965 125.89l-2.1836 20.309c-4.1387 29.134-39.132 81.016-62.501 86.121l12.206-18.445c13.147-22.655 16.129-49.521 9.4763-74.752-4.9055-18.6-14.597-42.607-28.504-56.334 6.946 18.216 17.334 41.854 14.043 61.801-4.6272 28.071-6.6187 51.935-32.054 70.41-24.804 18.017-61.304 19.908-79.312-7.3323-7.1643-10.842-13.452-32.559-11.163-45.498 4.1116-23.262 54.746-49.687 82.176-20.238l4.0437 23.224c6.6411-3.3027 9.0659-6.8462 11.554-14.065 7.7444-22.456 6.0427-39.044-5.1995-60.012-28.086-52.362-140.41-57.703-231.81-1.7288-90.264 55.282-158.61 164.49-187.74 264.29l-31.253 118.35c-0.0454-26.233 4.4539-52.229 8.313-78.138 18.546-124.48 66.338-258.08 156.93-348.66 53.932-53.919 127.94-94.839 205.75-94.556 42.57 0.1544 89.383 18.483 119.26 49.363zm-134.57-346.24c48.238 2.3143 39.456 5.6334 70.679-10.77-1.5815 10.732-3.0459 21.706-6.2878 32.085-15.47 49.562-70.618 46.648-111.09 57.358-20.154 5.3361-37.725 14.231-56.007 23.947 35.593-1.3142 68.284-11.772 104.09-4.9635 25.493 4.8466 48.76 17.895 63.002 39.933 8.4446 13.064 14.871 36.032 11.317 51.453-3.4751 15.075-4.9397 25.864-16.132 37.481-9.0925 9.4371-21.479 15.455-34.814 14.999-56.206-1.9276-19.526-104.7-109.34-102.64-56.519 1.2919-97.082 28.489-139.51 63.176-89.221 83.594-150.88 198.33-177.29 317.22l-14.224 72.342c-2.1121 11.595-2.5225 25.167-7.4243 35.847-5.4336-29.638 13.21-152.8 20.741-197.03 29.73-174.51 88.064-390.2 248.39-463.49 25.997-11.885 54.945-18.607 81.646-29.716 3.9949-1.416 6.2649-1.1484 10.41-0.4518l0.4783 5.4717c-10.802 17.24-29.54 24.019-46.286 34.661-28.948 18.396-66.981 50.165-74.794 85.304l2.6355 1.7021c41.594-45.167 75.076-68.935 179.8-63.918zm-74.402-124.43c-21.633 23.412-58.902 39.722-90.757 40.483-26.667 0.6365-59.17-9.7383-78.25-29.008-26.094-26.353-28.984-71.35 1.3066-99.678 8.4897-7.9423 22.119-16.204 34.061-15.353 4.1414 0.2937 1.9126 0.6215 5.2295-0.1244 18.97-4.274 62.662 17.363 69.398 49.886 7.6584 37.026-27.997 52.459-48.123 34.329-9.6006-8.6501-19.589-18.84-19.657-32.514-0.0452-10.047 3.6445-13.9 10.12-20.64l-0.9827-4.0182c-17.043-2.949-26.783 2.6785-40.849 11.9-9.7625 12.8-14.668 25.141-14.114 41.259 0.4104 11.908 2.8386 16.276 11.863 24.391 55.288 49.727 154.31 11.57 144.04-79.806-3.0081-26.756-19.976-47.992-40.702-63.955-30.978-23.853-72.06-26.756-109.51-21.62-45.221 6.2021-88.37 44.956-99.842 89.34-3.6553 14.145-2.9214 38.638-11.069 49.574-21.638-15.673-10.143-183.36 157.78-211.98 26.096-5.4738 73.247 4.3669 104.13 31.471 53.073 46.584 70.93 146.55 15.93 206.06z"/> <path d="m3557.8 1184.9 0.2148 3.3214 3.5503 1.8152c11.924 1.4915 20.974 2.9486 31.373 9.2076l3.7649-3.9694c5.7312 3.4233 4.209 2.5829 6.9915 3.83l3.0496-4.696c-7.2739-4.5493-11.641-5.3927-20.097-5.9614-10.03-0.6742-18.535-4.436-28.847-3.5474z"/> <path d="m2966.7 1242.1c-10.067-6.1232-27.977-12.589-39.87-12.024 3.8962 4.9041 23.078 13.143 39.87 12.024z"/> <path d="m2467.7 1981.9c-52.487-50.5-93.449-129.76-91.826-203.9 2.4602-112.06 65.185-149.66 103.74-184.41-34.537 5.1997-101.3 47.592-127.63 107.76-24.133 55.128-19.69 128.3 2.9102 183.32 43.718 106.45 154.84 155.79 262.61 196.58-22.605-25.477-95.04-46.66-149.8-99.362z"/> <path d="m3393.7 1796.6c16.671-8.9517 65.291-99.36 171.66-102.75 54.539-1.7432 76.012 7.7888 92.365-12.164l-0.5271-4.105c-72.1-15.629-108.86-25.345-172.8 10.65-42.404 23.868-77.316 60.491-90.693 108.37z"/> <path d="m3649.6 1823.2c-0.3337-32.134-49.784-52.641-65.024-47.687 9.7212 10.45 24.483 12.382 35.767 20.998 8.3509 6.3833 19.973 24.689 29.257 26.689z"/> <path d="m2189.5 1937.4c-8.5837-9.5615-31.482-57.482-37.969-59.014-0.4028 33.975 24.253 74.635 47.276 97.889 39.253 39.65 89.696 51.11 142.97 57.972-53.582-28.549-110.7-50.519-152.28-96.846z"/> <path d="m3411.4 2106.4c-9.4202 11.128-21.52 25.035-25.462 39.27 23.147-17.459 93.032-166.53 283.63-136.06 24.896 4.1932 40.434 13.451 62.629 29.388l2.7825-1.2577-7.0215-10.251c-15.03-16.216-32.563-28.402-54.027-34.337-69.367-19.183-172.21 6.4948-262.53 113.24z"/> <path d="m3385.9 2145.7c-2.6543 2.7642-3.9343 3.7661-5.0186 7.5354 2.5299-1.8755 3.5428-4.8052 5.0186-7.5354z"/> </svg>